<?xml version="1.0" standalone="no"?>
<!DOCTYPE svg PUBLIC "-//W3C//DTD SVG 20010904//EN"
 "http://www.w3.org/TR/2001/REC-SVG-20010904/DTD/svg10.dtd">
<svg version="1.0" xmlns="http://www.w3.org/2000/svg"
 width="600.000000pt" height="600.000000pt" viewBox="0 0 600.000000 600.000000"
 preserveAspectRatio="xMidYMid meet">
<metadata>
Created by potrace 1.14, written by Peter Selinger 2001-2017
</metadata>
<g transform="translate(0.000000,600.000000) scale(0.100000,-0.100000)"
fill="#000000" stroke="none">
<path d="M2735 5989 c-1369 -128 -2470 -1151 -2694 -2501 -192 -1160 314
-2327 1293 -2982 888 -593 2024 -669 2981 -201 923 452 1538 1321 1667 2355
17 136 17 543 0 680 -78 636 -338 1207 -765 1681 -53 58 -142 147 -199 198
-463 416 -1014 671 -1629 756 -138 19 -516 27 -654 14z m112 -2364 c84 -236
156 -438 161 -449 6 -13 49 98 161 415 85 239 158 442 163 452 7 14 23 17 93
17 46 0 86 -4 89 -8 3 -5 -87 -269 -200 -587 l-204 -579 117 -333 c65 -183
120 -333 123 -333 3 0 158 368 345 818 186 449 357 859 379 910 l39 94 301 -4
c275 -4 308 -6 381 -27 277 -78 507 -268 642 -529 76 -147 108 -257 122 -420
37 -435 -189 -849 -569 -1046 -190 -98 -306 -118 -665 -114 l-260 3 0 635 0
635 85 0 85 0 3 -547 2 -548 173 0 c196 0 268 9 384 49 242 83 448 292 535
541 50 144 63 339 32 488 -66 322 -294 576 -604 674 -70 21 -92 23 -303 23
l-228 0 -402 -970 -402 -970 -84 0 -83 0 -121 342 c-67 189 -124 339 -128 335
-3 -4 -59 -155 -123 -336 -64 -182 -122 -333 -129 -338 -16 -10 -128 -10 -145
1 -8 4 -186 424 -396 932 -211 508 -393 946 -404 973 l-22 49 -208 -6 c-242
-7 -316 -21 -457 -91 -219 -109 -389 -324 -457 -576 -32 -118 -31 -337 1 -455
24 -89 84 -221 131 -291 86 -125 240 -251 375 -307 135 -56 159 -60 485 -66
l305 -6 0 -85 0 -85 -305 1 c-295 1 -308 2 -402 27 -434 115 -739 477 -788
931 -53 490 244 967 698 1122 140 48 206 55 492 52 l255 -3 380 -912 c209
-502 383 -907 386 -900 16 29 229 640 229 657 0 10 -90 273 -200 584 -110 311
-200 573 -200 581 0 13 15 15 92 13 l93 -3 152 -430z"/>
</g>
</svg>
